<?xml version="1.0" encoding="UTF-8" standalone="no"?>
<svg
   xmlns:dc="http://purl.org/dc/elements/1.1/"
   xmlns:cc="http://creativecommons.org/ns#"
   xmlns:rdf="http://www.w3.org/1999/02/22-rdf-syntax-ns#"
   xmlns:svg="http://www.w3.org/2000/svg"
   xmlns="http://www.w3.org/2000/svg"
   xmlns:xlink="http://www.w3.org/1999/xlink"
   id="svg3259"
   height="500"
   width="1000"
   version="1.1">
  <metadata
     id="metadata4370">
    <rdf:RDF>
      <cc:Work
         rdf:about="">
        <dc:format>image/svg+xml</dc:format>
        <dc:type
           rdf:resource="http://purl.org/dc/dcmitype/StillImage" />
        <dc:title></dc:title>
      </cc:Work>
    </rdf:RDF>
  </metadata>
  <defs
     id="defs3261">
    <linearGradient
       id="linearGradient4612-3">
      <stop
         id="stop4390"
         style="stop-color:#111111;stop-opacity:1"
         offset="0" />
      <stop
         id="stop4392"
         style="stop-color:#67161b;stop-opacity:1"
         offset="1" />
    </linearGradient>
    <linearGradient
       id="linearGradient5103">
      <stop
         offset="0"
         style="stop-color:#000000;stop-opacity:1"
         id="stop5105" />
      <stop
         offset="1"
         style="stop-color:#000000;stop-opacity:0"
         id="stop5107" />
    </linearGradient>
    <linearGradient
       id="linearGradient5067">
      <stop
         offset="0"
         style="stop-color:#6a360b;stop-opacity:1"
         id="stop5069" />
      <stop
         offset="0.2"
         style="stop-color:#c56414;stop-opacity:1"
         id="stop5075" />
      <stop
         offset="1"
         style="stop-color:#693407;stop-opacity:1"
         id="stop5071" />
    </linearGradient>
    <linearGradient
       gradientUnits="userSpaceOnUse"
       id="linearGradient4952"
       y2="146.31"
       x2="480.996"
       y1="641.43799"
       x1="480.996">
      <stop
         offset="0"
         style="stop-color:#0a0a0a;stop-opacity:1"
         id="stop4954" />
      <stop
         offset="0.1444"
         style="stop-color:#444444;stop-opacity:1"
         id="stop4956" />
      <stop
         offset="0.4609"
         style="stop-color:#0e0e0f;stop-opacity:1"
         id="stop4958" />
      <stop
         offset="0.7543"
         style="stop-color:#222222;stop-opacity:1"
         id="stop4960" />
      <stop
         offset="1"
         style="stop-color:#323232;stop-opacity:1"
         id="stop4962" />
    </linearGradient>
    <linearGradient
       id="linearGradient4926">
      <stop
         offset="0"
         style="stop-color:#543e2c;stop-opacity:1"
         id="stop4928" />
      <stop
         offset="0.584953"
         style="stop-color:#120e0a;stop-opacity:1"
         id="stop4934" />
      <stop
         offset="1"
         style="stop-color:#433123;stop-opacity:1"
         id="stop4930" />
    </linearGradient>
    <linearGradient
       id="linearGradient4612">
      <stop
         offset="0"
         style="stop-color:#653f95;stop-opacity:1"
         id="stop4614" />
      <stop
         offset="1"
         style="stop-color:#ff5b77;stop-opacity:1"
         id="stop4616" />
    </linearGradient>
    <linearGradient
       gradientTransform="matrix(1.16667,0,0,1.2483448,890.004,-186.35916)"
       gradientUnits="userSpaceOnUse"
       xlink:href="#linearGradient4612-3"
       id="linearGradient4618"
       y2="640.96674"
       x2="-271.52899"
       y1="503.02274"
       x1="-271.52899" />
    <linearGradient
       gradientUnits="userSpaceOnUse"
       id="SVGID_6_-2"
       y2="-63.9216"
       x2="338.11301"
       y1="909.69098"
       x1="338.11301">
      <stop
         offset="0"
         style="stop-color:#000000;stop-opacity:1"
         id="stop3723" />
      <stop
         offset="0.1265"
         style="stop-color:#232525;stop-opacity:1"
         id="stop3725" />
      <stop
         offset="0.4497"
         style="stop-color:#101010;stop-opacity:1"
         id="stop3727" />
      <stop
         offset="0.7492"
         style="stop-color:#555855;stop-opacity:1"
         id="stop3729" />
      <stop
         offset="1"
         style="stop-color:#e8e9e8;stop-opacity:1"
         id="stop3731" />
    </linearGradient>
    <linearGradient
       gradientUnits="userSpaceOnUse"
       xlink:href="#linearGradient4952"
       id="linearGradient4912"
       y2="317.66"
       x2="551.224"
       y1="594.82001"
       x1="551.224" />
    <linearGradient
       gradientUnits="userSpaceOnUse"
       xlink:href="#linearGradient4952"
       id="linearGradient4914"
       y2="489.06799"
       x2="543.479"
       y1="775.27301"
       x1="543.479" />
    <linearGradient
       gradientUnits="userSpaceOnUse"
       xlink:href="#SVGID_6_-2"
       id="linearGradient4916"
       y2="15.3971"
       x2="477.61899"
       y1="408.48001"
       x1="477.61899" />
    <linearGradient
       gradientUnits="userSpaceOnUse"
       xlink:href="#linearGradient4952"
       id="linearGradient4918"
       y2="146.31"
       x2="480.996"
       y1="641.43799"
       x1="480.996" />
    <linearGradient
       gradientUnits="userSpaceOnUse"
       xlink:href="#linearGradient4952"
       id="linearGradient4920"
       y2="479.80099"
       x2="476.909"
       y1="804.99298"
       x1="476.909" />
    <linearGradient
       gradientTransform="matrix(0.415366,0,0,0.415366,-592.827,-134.971)"
       gradientUnits="userSpaceOnUse"
       xlink:href="#SVGID_6_-2"
       id="linearGradient4922"
       y2="-63.9216"
       x2="338.11301"
       y1="909.69098"
       x1="338.11301" />
    <linearGradient
       gradientTransform="matrix(0.415366,0,0,0.415366,-592.827,-134.971)"
       gradientUnits="userSpaceOnUse"
       xlink:href="#linearGradient4952"
       id="linearGradient4924"
       y2="-1018.29"
       x2="337.05301"
       y1="1691.23"
       x1="337.05301" />
    <linearGradient
       gradientUnits="userSpaceOnUse"
       xlink:href="#linearGradient4926"
       id="linearGradient4932"
       y2="122.155"
       x2="-314.05899"
       y1="122.155"
       x1="-510.25601" />
    <linearGradient
       gradientUnits="userSpaceOnUse"
       xlink:href="#linearGradient4926"
       id="linearGradient4942"
       y2="387.14999"
       x2="498.13199"
       y1="387.14999"
       x1="443.392" />
    <linearGradient
       gradientUnits="userSpaceOnUse"
       xlink:href="#linearGradient4926"
       id="linearGradient4950"
       y2="495.83801"
       x2="575.91803"
       y1="495.83801"
       x1="517.23297" />
    <linearGradient
       gradientTransform="translate(1234.111,-20.666794)"
       gradientUnits="userSpaceOnUse"
       xlink:href="#linearGradient5067"
       id="linearGradient5073"
       y2="392.63"
       x2="-338.92899"
       y1="392.63"
       x1="-466.07101" />
    <filter
       style="color-interpolation-filters:sRGB"
       id="filter5099"
       height="1.0606101"
       width="1.23069"
       y="-0.0303056"
       x="-0.115347">
      <feGaussianBlur
         stdDeviation="0.84107"
         id="feGaussianBlur5101" />
    </filter>
    <linearGradient
       gradientTransform="translate(1234.111,-20.666794)"
       gradientUnits="userSpaceOnUse"
       xlink:href="#linearGradient5103"
       id="linearGradient5109"
       y2="424.595"
       x2="-408.517"
       y1="424.595"
       x1="-423.80499" />
    <linearGradient
       gradientUnits="userSpaceOnUse"
       xlink:href="#linearGradient5103"
       id="linearGradient5113"
       y2="424.595"
       x2="-408.517"
       y1="424.595"
       x1="-423.80499" />
    <filter
       height="1.216"
       y="-0.108"
       width="1.216"
       x="-0.108"
       id="filter4594"
       style="color-interpolation-filters:sRGB">
      <feGaussianBlur
         id="feGaussianBlur4596"
         stdDeviation="0.14827024" />
    </filter>
  </defs>
  <path
     d="m 895.182,391.6952 -2.142,-11.071 -27.5,-8.929 -27.322,-15.178 -43.393,-4.286 -19.643,11.25 -4.285,8.214 -2.857,14.822 127.142,5.178 z"
     id="path5065"
     style="fill:url(#linearGradient5073);fill-opacity:1;stroke:none" />
  <g
     transform="translate(1210.8775,184.3942)"
     id="g4869">
    <g
       transform="matrix(0.415366,0,0,0.415366,-592.827,-134.971)"
       id="g3651">
      <path
         d="m 553.9,361.7 120.9,-4.9 c 2.2,-0.1 3.9,1.7 3.8,3.9 -0.2,2.3 -2.2,4.2 -4.4,4.3 l -120.2,4.9 2.9,159.9 32.6,0 -0.1,11 109,-4.7 c 1.9,-0.1 3.5,0.9 4.2,2.5 0.1,0.2 0.2,0.5 0.3,0.8 0,0 -0.8,1.5 -0.9,2.2 -0.5,2.4 -1.7,4.6 -4.4,4.7 l -140.2,6 3.1,172.3 139.6,-6.2 c 6.9,-0.3 6.1,10.2 -0.8,10.5 l -138.6,6.1 0.5,27.3 c -2.6,-1.5 -5.2,-3 -7.9,-4.5 l 0,-431.8 0.6,35.7 0,0 z m -0.6,464.8 0,-42.8 c 2.8,1.1 5.6,2.2 8.3,3.4 l 0.7,39.5 -9,-0.1 0,0 z m 0,-49.4 0,-12.9 c 2.7,1.3 5.4,2.7 8,4.1 l 0.2,12.8 c -2.7,-1.4 -5.5,-2.7 -8.2,-4 z m 0,-19.2 c -2.7,-1.5 -5.5,-2.8 -8.2,-4.1 l 0,-18 -91.2,4 c -1.3,0 -2,0 -2,0 l 0,0 -45,2 c -6.9,0.3 -6.1,-10.2 0.8,-10.5 l 137.4,-6.1 0,-172.4 -140.2,6 c -6.6,0.3 -5.9,-9.9 0.8,-10.2 l 110.8,-4.7 -6.5,-8.3 0,-5.8 35,0 0,-159.6 -118.8,4.8 c -5.3,0.2 -4.7,-8 0.6,-8.2 l 118.1,-4.8 0,-195.6 c 0,-1.8 2.2,-1.7 2.2,-0.1 l 2.5,126.1 3,4.3 0.5,29.2 0,432 0.2,0 z m 0,6.3 0,12.9 c -2.7,-1.2 -5.4,-2.4 -8.2,-3.6 l 0,-12.8 c 2.7,1 5.5,2.2 8.2,3.5 l 0,0 z m 0,19.5 0,42.8 -8.2,-0.1 0,-45.5 c 2.7,0.8 5.5,1.8 8.2,2.8 z"
         id="path3653"
         style="fill:url(#linearGradient4950);fill-opacity:1;fill-rule:evenodd" />
      <linearGradient
         x1="551.224"
         y1="594.82001"
         x2="551.224"
         y2="317.66"
         id="SVGID_1_-3"
         gradientUnits="userSpaceOnUse">
        <stop
           id="stop3656"
           style="stop-color:#bbbebf;stop-opacity:1"
           offset="0" />
        <stop
           id="stop3658"
           style="stop-color:#c8cbcc;stop-opacity:1"
           offset="0.1444" />
        <stop
           id="stop3660"
           style="stop-color:#e0e1e2;stop-opacity:1"
           offset="0.4609" />
        <stop
           id="stop3662"
           style="stop-color:#efefef;stop-opacity:1"
           offset="0.7543" />
        <stop
           id="stop3664"
           style="stop-color:#f4f4f4;stop-opacity:1"
           offset="1" />
      </linearGradient>
      <path
         d="m 400.2,554.3 c -2.7,-41.9 4.2,-148.3 22.4,-182.6 l 255.9,-10.5 c -6.7,50.8 13.3,126.7 24.4,178.1 -0.2,-0.4 -153.6,-95.5 -302.7,15 z"
         id="path3666"
         style="fill:url(#linearGradient4912);fill-opacity:1;fill-rule:evenodd" />
      <linearGradient
         x1="543.479"
         y1="775.27301"
         x2="543.479"
         y2="489.06799"
         id="SVGID_2_-0"
         gradientUnits="userSpaceOnUse">
        <stop
           id="stop3669"
           style="stop-color:#b1b4b6;stop-opacity:1"
           offset="0" />
        <stop
           id="stop3671"
           style="stop-color:#bcbfc0;stop-opacity:1"
           offset="0.1265" />
        <stop
           id="stop3673"
           style="stop-color:#d4d6d6;stop-opacity:1"
           offset="0.4497" />
        <stop
           id="stop3675"
           style="stop-color:#e3e4e3;stop-opacity:1"
           offset="0.7492" />
        <stop
           id="stop3677"
           style="stop-color:#e8e9e8;stop-opacity:1"
           offset="1" />
      </linearGradient>
      <path
         d="M 402,737 C 374,689.2 378.2,603 400.1,554.3 l 302.7,-15 c -18.1,59.1 -16.6,123.9 1.7,182 0.1,0.1 -167.8,-94.6 -302.5,15.7 z"
         id="path3679"
         style="fill:url(#linearGradient4914);fill-opacity:1;fill-rule:evenodd" />
    </g>
    <g
       transform="matrix(0.415366,0,0,0.415366,-592.827,-134.971)"
       id="g3681">
      <path
         d="m 477,111.5 11.1,0 0,10.1 -7.1,0 0,14 -3.6,0 0.2,10.3 79.4,-8 c 2.3,-0.2 2.7,3.3 0.4,3.5 l -79.7,8 0.8,52.7 2.7,0.8 1,47.4 14.4,0 -0.1,9.7 -14.1,-0.2 0.1,3.5 133.9,-16.7 c 5.3,-0.7 6.6,7.4 1.3,8.1 l -135,16.8 4,185.2 43.8,0 -0.3,23.4 -43,-0.5 1.1,50.5 188,-4.9 c 5.3,-0.1 5.6,8 0.2,8.1 l -188,4.9 4.1,193.1 -19.1,-0.2 0,-192.3 -188.5,4.9 c -5.3,0.1 -5.6,-8 -0.2,-8.2 l 188.6,-4.9 0,-51 -28.1,-0.3 -11.9,-15.3 0,-7.1 40.1,0 0,-184.1 -133.5,16.7 c -5.3,0.7 -6.3,-7.4 -1,-8.1 l 134.4,-16.8 0,-4.7 -12.3,-0.1 -5,-6.4 0,-3 17.3,0 0,-100.5 -78.4,7.9 c -2.3,0.2 -2.7,-3.3 -0.4,-3.5 l 78.8,-7.9 0,-101.9 c 0,-2 2.4,-2 2.5,0 l 1.1,67 z"
         id="path3683"
         style="fill:url(#linearGradient4942);fill-opacity:1;fill-rule:evenodd" />
      <linearGradient
         x1="477.61899"
         y1="408.48001"
         x2="477.61899"
         y2="15.3971"
         id="SVGID_3_-0"
         gradientUnits="userSpaceOnUse">
        <stop
           id="stop3686"
           style="stop-color:#cccdcf;stop-opacity:1"
           offset="0" />
        <stop
           id="stop3688"
           style="stop-color:#e0e1e2;stop-opacity:1"
           offset="0.3392" />
        <stop
           id="stop3690"
           style="stop-color:#efefef;stop-opacity:1"
           offset="0.6985" />
        <stop
           id="stop3692"
           style="stop-color:#f4f4f4;stop-opacity:1"
           offset="1" />
      </linearGradient>
      <path
         d="m 335.9,283.5 c 0,0 15.8,-48.3 31.6,-81.7 15.8,-33.5 25.7,-45.1 25.7,-45.1 l 165.6,-16.4 c 0.1,0 -14,49 60.5,107.2 0,0 -160.4,-126.5 -283.4,36 z"
         id="path3694"
         style="fill:url(#linearGradient4916);fill-opacity:1;fill-rule:evenodd" />
      <linearGradient
         x1="480.996"
         y1="641.43799"
         x2="480.996"
         y2="146.31"
         id="SVGID_4_-2"
         gradientUnits="userSpaceOnUse">
        <stop
           id="stop3697"
           style="stop-color:#bbbebf;stop-opacity:1"
           offset="0" />
        <stop
           id="stop3699"
           style="stop-color:#c8cbcc;stop-opacity:1"
           offset="0.1444" />
        <stop
           id="stop3701"
           style="stop-color:#e0e1e2;stop-opacity:1"
           offset="0.4609" />
        <stop
           id="stop3703"
           style="stop-color:#efefef;stop-opacity:1"
           offset="0.7543" />
        <stop
           id="stop3705"
           style="stop-color:#f4f4f4;stop-opacity:1"
           offset="1" />
      </linearGradient>
      <path
         d="m 281.9,536.9 c 0,0 7.2,-71.4 25.5,-150.4 18.3,-78.9 28.8,-98.8 28.8,-98.8 l 284.9,-36.9 c 4.8,96.2 30.9,186.6 59,277.3 0,0 -238.391,-107.462 -398.2,8.8 z"
         id="path3707"
         style="fill:url(#linearGradient4918);fill-opacity:1;fill-rule:evenodd" />
      <linearGradient
         x1="476.909"
         y1="804.99298"
         x2="476.909"
         y2="479.80099"
         id="SVGID_5_-5"
         gradientUnits="userSpaceOnUse">
        <stop
           id="stop3710"
           style="stop-color:#bbbebf;stop-opacity:1"
           offset="0" />
        <stop
           id="stop3712"
           style="stop-color:#c8cbcc;stop-opacity:1"
           offset="0.1444" />
        <stop
           id="stop3714"
           style="stop-color:#e0e1e2;stop-opacity:1"
           offset="0.4609" />
        <stop
           id="stop3716"
           style="stop-color:#efefef;stop-opacity:1"
           offset="0.7543" />
        <stop
           id="stop3718"
           style="stop-color:#f4f4f4;stop-opacity:1"
           offset="1" />
      </linearGradient>
      <path
         d="m 281.5,541.9 c -21,96.8 1.2,156.7 66.3,229.7 33.5,-92.2 247.7,-54.1 315.9,-14.4 C 650.6,680.9 650.2,603.8 680,531.1 l -398.5,10.8 z"
         id="path3720"
         style="fill:url(#linearGradient4920);fill-opacity:1;fill-rule:evenodd" />
    </g>
    <path
       d="m -510.294,103.075 c 10.094,-10.2177 64.797,-75.4302 69.948,-24.5063 0,0 -11.886,-51.2478 45.856,-101.6401 0,0 -85.247,26.51879 -115.804,126.1464 z"
       id="path3733"
       style="fill:url(#linearGradient4922);fill-rule:evenodd" />
    <path
       d="m -510.294,103.075 c -1.08,-85.3159 60.851,-162.4494 114.932,-190.3204 -25.005,22.9697 -59.107,76.4688 -72.191,107.7874 0.042,0 -34.309,-10.0103 -42.741,82.533 z"
       id="path3746"
       style="fill:url(#linearGradient4924);fill-opacity:1;fill-rule:evenodd" />
    <path
       d="m -489.006,-19.5587 c -1.394,0.165 -1.72,2.756 0.156,6.75 1.288,2.90704 39.969,85.031 39.969,85.031 l -0.25,15.094 2.437,0.062 3.625,9.656 -11.906,0.688 0.719,2 -56,3.3117 0,1.157 1.906,-0.125 0,1.062 5.031,-0.312 0,-1.032 49.438,-2.937 0.625,1.781 11.968,-0.75 12.344,33.063 0,-32.063 -0.812,-1.656 0.718,-0.062 0,-4.9997 -3,0.187 c -22.388,-47.81 -50.908,-108.681 -51.531,-109.969 -2.141,-4.322 -4.207,-6.083 -5.437,-5.937 z m 60.062,122.4367 c 0.073,0.156 0.052,0.122 0.125,0.282 l 0,-0.282 -0.125,0 z m 0.125,0.282 0,31.812 7.125,19.062 -1.5,2.313 -1.312,4.687 c -9.305,10.902 -15.307,21.872 -19.125,38.75 -2.036,12.798 -1.535,28.254 7.437,45.907 0,0 2.64,11.392 7.25,10.187 l 0.125,-1.562 c 5.774,-1.496 14.617,3.182 25.375,6.094 0,0 8.498,0.961 14.563,0.624 3.032,-0.166 15.992,1.806 30.281,2.844 l 0,-4.156 c 20.537,1.439 43.656,-15.015 43.656,-22.812 0,-18.073 4.188,-38.614 -5.656,-54.813 l -25.062,-0.344 c 0,0 -6.801,-4.365 -13.032,-8.062 l 0,-0.031 c -4.029,-2.372 -7.807,-4.45 -9.468,-4.907 -10.264,-2.741 -28.111,-1.439 -30.063,-8.5 l -1.313,-4.75 -6,-2.625 c 0,0 -10.26,-21.946 -23.281,-49.718 z m 62.407,-8.6877 -53.063,3.156 -0.719,-2.031 -8.75,0.563 0,4.9997 10.406,-0.594 -0.624,-1.7497 47.031,-2.844 0,0.938 4.437,-0.25 0,-0.938 1.282,-0.062 0,-1.188 z m -37.719,77.7807 c 4.463,-0.07 23.053,-0.036 34.937,4.657 3.614,1.453 7.094,3.298 10.5,5.374 l 0,0.094 c 13.417,8.141 25.696,19.197 41.688,17.656 -22.95,3.564 -34.407,-14.472 -52.938,-20.312 -13.208,-3.655 -32.968,-3.531 -32.968,-3.531 l -2.219,-3.907 c 0,0 0.362,-0.021 1,-0.031 z m -15.063,0.907 c 0.042,0.332 1.125,3.874 1.125,3.874 -7.905,1.843 -16.302,3.438 -21.469,10.532 5.438,-10.676 11.086,-12.228 20.344,-14.406 z m 22.188,8.843 c 6.536,-0.074 20.811,0.259 30.437,4.157 14.887,5.537 29.267,17.731 49.75,17.906 -23.087,4.277 -33.156,-9.931 -50.469,-15.032 -12.46,-3.447 -31.156,-3.031 -31.156,-3.031 l -2.062,-3.906 c 0,0 1.321,-0.069 3.5,-0.094 z m -19.688,0.344 c 0.042,0.415 1.278,4.219 1.282,4.219 -9.433,1.301 -21.442,5.384 -26.969,13.562 6.361,-11.606 14.135,-15.072 25.687,-17.781 z"
       id="path4699"
       style="fill:url(#linearGradient4932);fill-opacity:1;fill-rule:evenodd" />
  </g>
  <path
     d="m 1025.6169,450.15704 c -51.25702,-10.093 48.9121,-53.38984 -3.6369,-50.01584 -61.496,68.496 -106.1,15.173 -139.332,30.255 -42.843,11.374 -88.189,6.682 -129.202,-9.138 -46.276,-17.777 -85.362,14.879 -127.229,25.955 -44.007,9.029 -81.113,-21.051 -122.728,-26.506 -39.896,-2.312 -70.058,35.735 -110.907,30.577 -40.105,-2.113 -70.576,-38.817 -109.719,-37.658 -16.219,0.48 -59.822,13.796 -129.702,16.001 -82.039996,2.589 -156.9099955,-44.468 -170.199996,-25.141 -23.49,15.788 -34.852254,91.37487 -16.892254,107.20387 l 1063.35275,2.32984 c -0.026,-21.766 -6.5745,18.479 -3.8047,-63.86287 z"
     id="path4620"
     style="fill:#111111;fill-opacity:1;stroke:none" />
  <g
     transform="matrix(1.43396,-0.061564,0.061564,1.43396,774.621,175.5712)"
     id="73"
     style="fill:#ffffff;stroke:none">
    <path
       d="M 35.222,0 C 34.233,0.703 34.284,0.613 33.485,0.874 31.653,1.473 29.896,1.144 27.811,0.97 27.184,0.9 26.562,0.859 25.955,0.855 22.89,0.834 20.287,1.733 19.794,4.243 c -0.909,0.551 -1.745,1.218 -2.573,1.886 -1.768,1.395 -3.099,3.1 -4.007,5.155 -1.24,3.035 -0.12,6.292 0.435,9.368 0.132,0.72 0.27,1.406 0.344,1.671 0.105,0.373 0.29,0.729 0.491,1.049 0.047,0.008 0.295,-0.374 0.354,-0.543 0.086,-0.246 0.077,-0.641 -0.017,-0.981 -0.208,-0.765 -0.406,-1.386 -0.423,-1.698 -0.03,-0.586 0.084,-1.127 0.298,-1.395 0.076,-0.095 0.25,0.395 0.205,0.577 -0.053,0.219 -0.093,0.594 -0.076,0.767 0.047,0.586 0.133,1.213 0.24,1.761 0.137,0.707 0.196,1.161 0.171,1.337 -0.018,0.128 -0.078,0.257 -0.308,0.653 -0.2,0.347 -0.304,0.628 -0.32,0.876 -0.017,0.242 0.056,0.847 0.124,0.995 0.099,0.231 0.397,0.474 0.657,0.534 0.249,0.095 0.374,0.292 0.502,0.513 0.311,0.593 0.551,1.315 0.789,2.403 0.116,0.521 0.213,0.986 0.244,1.23 -1.92,0.002 -4.379,0.003 -6.619,0.003 C 9.551,30.416 8.189,30.062 6.94,29.98 6.759,28.026 5.901,25.756 4.433,25.624 3.431,25.533 2.6,25.914 1.897,27.497 l 0.02,0.085 C 2.332,27.235 2.77,26.174 4.348,26.247 5.56,26.302 5.964,28.596 6.084,29.976 5.346,30.03 4.718,30.257 4.39,30.824 l -0.007,0 c 0,10e-4 0,0.003 0.003,0.005 -0.003,0.002 -0.003,0.004 -0.003,0.006 l 0.007,0 c 0.338,0.581 0.989,0.806 1.754,0.851 C 6.655,46.136 20.238,48 23.95,48 c 13.848,0 18.696,-9.41 19.425,-13.137 0.341,1.588 -0.733,3.611 -0.99,5.104 2.921,-3.377 2.393,-6.624 1.859,-9.89 0.444,0.528 1.045,0.855 1.86,0.674 -0.581,-0.388 -1.369,-0.116 -1.841,-1.753 -0.206,-0.707 -0.384,-1.237 -0.561,-1.682 -0.382,-1.433 -0.924,-2.802 -1.59,-4.136 -0.562,-1.447 -0.191,-2.385 -0.247,-3.627 1.011,3.334 1.643,4.221 2.823,4.57 -2.968,-3.576 -1.952,-9.113 -3.629,-14.055 0.759,0.446 1.625,0.58 2.547,0.035 C 42.714,9.849 41.824,10.52 40.544,8.639 39.463,6.536 37.897,4.983 35.997,3.613 34.979,2.949 33.849,2.503 32.713,2.089 33.87,1.799 35.162,0.769 35.222,0 Z m -1.941,11.107 c 1.524,0.556 3.204,2.668 3.185,4.74 l 0,0.086 0,0.03 c -0.041,2.814 -1.32,4.327 -1.266,6.201 0.069,2.207 1.019,2.977 1.208,3.345 -0.324,-1.361 -0.514,-3.073 -0.086,-4.429 0.55,-1.744 1.105,-3.188 1.065,-4.554 -0.02,-0.32 -0.156,-1.517 -0.247,-2.047 1.634,2.358 -0.354,5.787 0.218,8.031 0.994,3.909 5.449,4.403 4.123,12.279 -1.167,6.924 -9.163,12.179 -17.359,12.179 -6.076,0 -16.605,-3.363 -17.125,-15.292 1.235,-0.088 2.563,-0.432 3.308,-0.42 2.252,0 4.824,0.001 6.762,0.002 0.364,1.642 0.637,2.038 2.018,3.132 1.536,1.208 1.894,1.355 4.166,1.377 2.273,0.023 2.947,-0.464 5.152,-2.55 0.476,-0.558 0.682,-1.289 0.913,-1.976 2.268,-0.021 3.922,-0.061 5.549,-0.137 1.657,-0.075 1.891,0 4.561,-0.275 -2.67,-0.275 -2.904,-0.2 -4.561,-0.276 -1.584,-0.072 -3.188,-0.113 -5.357,-0.133 0.182,-0.817 0.442,-1.615 0.719,-2.404 0.171,-0.465 0.372,-0.918 0.578,-1.369 l 0.225,-0.07 c 0.434,-0.154 0.818,-0.484 0.971,-0.93 0.197,-0.591 0.057,-1.255 -0.324,-1.738 -0.131,-0.181 -0.294,-0.412 -0.361,-0.514 -0.201,-0.318 -0.206,-0.495 -0.036,-1.677 0.143,-0.99 0.159,-1.508 0.06,-2.01 -0.02,-0.287 -0.022,-0.877 -0.031,-1.036 0.076,0.042 0.241,0.418 0.408,0.927 0.166,0.511 0.193,0.617 0.231,1.052 0.042,0.494 -0.143,0.86 -0.295,1.597 -0.076,0.38 -0.143,0.733 -0.143,0.781 0,0.051 0.036,0.159 0.074,0.243 0.089,0.188 0.256,0.452 0.287,0.452 0.545,-0.601 0.865,-1.343 1.15,-2.096 0.3,-0.852 0.388,-1.756 0.598,-2.633 0.17,-0.764 0.366,-1.529 0.427,-2.313 0.123,-1.53 0.051,-2.61 -0.287,-4.204 -0.081,-0.36 -0.315,-1.047 -0.478,-1.371 z m -5.36,7.537 c 0.585,-0.007 1.164,0.064 1.715,0.223 0.749,0.287 0.854,0.956 0.992,1.707 0.077,0.48 0.074,0.825 -0.013,1.389 -0.061,0.818 -0.386,1.451 -1.096,1.896 -1.071,0.198 -2.216,0.389 -3.124,-0.32 -0.762,-1.05 -1.221,-2.377 -1.046,-3.671 0.111,-0.531 0.358,-0.807 0.866,-0.972 0.547,-0.157 1.126,-0.243 1.706,-0.252 z m -8.883,0.095 c 0.547,-0.005 1.1,0.053 1.404,0.247 1.305,0.883 0.886,2.32 0.37,3.581 -0.751,1.651 -2.375,1.59 -3.949,1.577 -0.871,-0.255 -0.951,-0.969 -1.077,-1.732 -0.108,-0.737 -0.338,-1.527 -0.146,-2.268 0.493,-1.192 2.295,-1.329 3.398,-1.405 z m 19.903,0.206 c 0.007,3.173 0.549,4.732 1.637,6.979 -0.641,-1.223 -1.557,-1.919 -1.898,-3.381 -0.652,-2.823 0.051,-2.665 0.261,-3.598 z m -15.813,2.298 c 0.172,0.174 0.255,0.414 0.404,0.605 0.115,-0.197 0.233,-0.393 0.381,-0.568 0.077,0.002 0.171,0.154 0.256,0.426 0.364,1.006 0.435,2.113 0.907,3.08 0.441,0.7 -0.161,1.108 -0.822,1.14 -0.482,-10e-4 -0.686,-0.33 -0.969,-0.656 -0.073,0.213 -0.212,0.35 -0.378,0.494 -0.422,0.354 -1.249,0.223 -1.377,-0.335 0.17,-1.066 0.713,-2.045 1.069,-3.067 0.177,-0.373 0.179,-0.659 0.529,-1.119 z m -6.192,5.385 c 0.213,0 0.798,0.397 0.917,0.621 0.082,0.149 0.269,0.729 0.282,0.87 0.021,0.168 -0.03,0.566 -0.082,0.674 -0.038,0.077 -0.067,0.088 -0.111,0.038 -0.037,-0.042 -0.527,-0.982 -0.84,-1.604 -0.246,-0.498 -0.272,-0.599 -0.166,-0.599 z m 12.222,0.311 c 0.008,0.001 0.02,0.004 0.031,0.007 0.066,0.027 0.02,0.261 -0.228,1.111 -0.047,0.256 -0.161,0.458 -0.328,0.626 -0.055,0 -0.08,-0.064 -0.166,-0.419 -0.073,-0.303 -0.081,-0.573 -0.03,-0.815 0.088,-0.303 0.444,-0.396 0.721,-0.51 z m -1.483,1.853 c 0.021,-0.004 0.041,0.007 0.067,0.028 0.09,0.063 0.103,0.229 0.043,0.554 -0.073,0.418 -0.089,0.464 -0.197,0.507 -0.047,0.021 -0.131,0.036 -0.187,0.036 -0.101,-0.018 -0.127,-0.1 -0.103,-0.224 0,-0.26 0.076,-0.486 0.248,-0.753 0.065,-0.1 0.098,-0.143 0.129,-0.148 z m -8.633,0.019 c 0.069,0 0.277,0.15 0.354,0.254 0.086,0.11 0.184,0.765 0.129,0.878 -0.063,0.142 -0.371,0.071 -0.456,-0.106 -0.052,-0.106 -0.175,-0.678 -0.175,-0.814 0,-0.126 0.061,-0.212 0.148,-0.212 z m 7.891,0.173 c 0.084,0.12 0.106,0.274 0.088,0.612 l -0.017,0.308 -0.088,0.088 c -0.053,0.049 -0.143,0.109 -0.197,0.134 -0.119,0.056 -0.21,0.061 -0.227,0.016 -0.02,-0.06 0.014,-0.442 0.051,-0.571 0.043,-0.133 0.236,-0.53 0.3,-0.614 0.029,-0.077 0.063,0.019 0.09,0.027 z m -5.021,-0.018 c 0.181,0.046 0.261,0.209 0.36,0.357 l 0.067,0.132 -0.094,0.327 c -0.05,0.18 -0.103,0.342 -0.119,0.36 -0.018,0.02 -0.085,0.03 -0.184,0.029 -0.264,-0.007 -0.294,-0.018 -0.365,-0.126 l -0.066,-0.098 0.056,-0.275 c 0.081,-0.396 0.12,-0.515 0.21,-0.617 0.047,-0.055 0.094,-0.085 0.135,-0.089 z m -1.671,0.283 0.149,0.149 0.025,0.337 c 0.013,0.184 0.019,0.355 0.009,0.376 -0.009,0.029 -0.063,0.037 -0.23,0.037 l -0.217,0 c -0.116,-0.127 -0.152,-0.282 -0.201,-0.442 -0.114,-0.481 -0.114,-0.7 0.004,-0.729 0.193,0.012 0.32,0.152 0.461,0.272 z m 5.8,-0.231 c 0.236,0.063 0.189,0.438 0.188,0.706 -0.018,0.434 -0.035,0.524 -0.091,0.58 -0.097,0.097 -0.367,0.043 -0.498,-0.101 -0.043,-0.052 -0.047,-0.068 -0.013,-0.279 0.039,-0.257 0.089,-0.417 0.2,-0.637 0.081,-0.158 0.157,-0.257 0.214,-0.269 z m -5.326,0.02 c 0.013,-0.001 0.034,0 0.054,0.002 0.15,0.012 0.29,0.11 0.414,0.29 l 0.1,0.147 c 0.009,0.241 0,0.495 -0.043,0.719 -0.026,0.013 -0.134,0.033 -0.24,0.043 -0.184,0.017 -0.201,0.013 -0.265,-0.043 -0.089,-0.076 -0.114,-0.217 -0.136,-0.685 -0.013,-0.382 -0.004,-0.467 0.116,-0.473 z m 2.269,0.08 c 0.161,0.034 0.263,0.12 0.308,0.261 0.036,0.121 0.058,0.798 0.023,0.845 -0.012,0.02 -0.088,0.045 -0.175,0.056 -0.324,0.041 -0.61,0.01 -0.638,-0.067 -0.036,-0.088 0.205,-0.96 0.294,-1.068 0.038,-0.084 0.13,-0.019 0.188,-0.027 z m 2.098,0.006 c 0.071,-0.007 0.147,0.061 0.221,0.206 0.06,0.121 0.069,0.163 0.069,0.434 0,0.216 -0.013,0.309 -0.036,0.329 -0.02,0.016 -0.101,0.045 -0.187,0.067 -0.15,0.039 -0.183,0.043 -0.23,0.027 l -0.225,-0.041 0.017,-0.134 c 0.016,-0.175 0.131,-0.563 0.212,-0.731 0.048,-0.1 0.103,-0.15 0.159,-0.157 z m -0.978,0.003 c 0.047,-0.002 0.069,0.009 0.099,0.042 0.071,0.084 0.161,0.332 0.218,0.597 0.076,0.373 0.076,0.372 -0.087,0.421 -0.071,0.022 -0.221,0.045 -0.328,0.051 -0.353,0.018 -0.38,-0.003 -0.337,-0.315 0.034,-0.278 0.171,-0.716 0.23,-0.748 0.064,-0.034 0.138,-0.033 0.205,-0.048 z M 6.111,30.536 c 0.003,-0.001 0.007,0 0.007,0 0.009,0.195 0.009,0.392 0.013,0.588 -0.495,-0.038 -0.859,-0.156 -0.859,-0.295 0,-0.137 0.351,-0.254 0.839,-0.293 z m 0.865,0.017 c 0.401,0.05 0.678,0.155 0.673,0.276 0,0.122 -0.268,0.226 -0.666,0.275 C 6.979,30.921 6.979,30.737 6.976,30.553 Z m 18.726,0.533 c 0.034,-0.003 0.049,-0.006 0.101,-10e-4 0.208,0.021 0.238,0.034 0.238,0.104 0,0.092 -0.158,0.369 -0.265,0.465 -0.05,0.048 -0.119,0.088 -0.143,0.088 -0.12,0 -0.19,-0.253 -0.134,-0.486 0.034,-0.126 0.096,-0.165 0.203,-0.17 z m -0.755,0.083 c 0.093,-0.008 0.183,0.017 0.273,0.029 -0.026,0.263 -0.144,0.478 -0.363,0.621 -0.054,0 -0.081,-0.103 -0.081,-0.328 0,-0.268 0.014,-0.319 0.171,-0.322 z m -0.828,0.097 c 0.193,0 0.363,0.009 0.371,0.02 0.036,0.034 -0.068,0.292 -0.221,0.554 -0.131,0.233 -0.15,0.25 -0.231,0.256 -0.318,-0.036 -0.309,-0.409 -0.358,-0.665 0,-0.152 0.034,-0.165 0.439,-0.165 z m -3.009,0.029 c 0.221,0.004 0.307,0.037 0.307,0.122 0,0.108 -0.082,0.323 -0.129,0.35 -0.071,0.039 -0.077,0.037 -0.217,-0.109 -0.221,-0.248 -0.246,-0.294 0.039,-0.363 z m 1.064,0.011 c 0.004,0.006 0.047,0.084 0.09,0.172 0.094,0.183 0.101,0.263 0.034,0.324 -0.158,0.09 -0.191,0.039 -0.334,-0.052 -0.166,-0.157 -0.297,-0.368 -0.254,-0.412 0.148,-0.053 0.311,-0.033 0.464,-0.032 z m 0.422,0.005 0.395,0.007 c 0.154,0 0.287,0.008 0.294,0.02 0.027,0.024 -0.06,0.538 -0.107,0.654 -0.054,0.13 -0.243,0.131 -0.341,-0.023 -0.14,-0.221 -0.232,-0.407 -0.235,-0.535 l -0.006,-0.123 z"
       id="path3773"
       style="fill:#ffffff;fill-opacity:1;stroke:none" />
  </g>
  <path
     d="m 822.147,437.2312 -9.822,-66.607 17.5,1.071 -7.678,65.536 z"
     id="path5077"
     style="fill:url(#linearGradient5109);fill-opacity:1;stroke:none;filter:url(#filter5099)" />
  <path
     d="m -411.964,457.898 -9.822,-66.607 17.5,1.071 -7.678,65.536 z"
     transform="matrix(-0.929181,0.369627,0.369627,0.929181,258.989,164.2702)"
     id="path5111"
     style="fill:url(#linearGradient5113);fill-opacity:1;stroke:none;filter:url(#filter5099)" />
  <style
     id="style3643"
     type="text/css" />
  <path
     style="opacity:1;fill:#ffffff;fill-opacity:1;stroke:none;stroke-width:2;stroke-linecap:round;stroke-linejoin:round;stroke-miterlimit:4;stroke-dasharray:none;stroke-dashoffset:0;stroke-opacity:1;filter:url(#filter4594)"
     id="use4670"
     d="m 435.25533,295.76967 -1.64034,-1.33317 -1.54287,1.44486 1.33318,-1.64033 -1.44487,-1.54287 1.64034,1.33318 1.54287,-1.44487 -1.33318,1.64034 z"
     transform="matrix(0.32778745,1.1658074,-1.1658074,0.32778745,159.39294,-343.78575)" />
</svg>
